<?xml version="1.0" encoding="UTF-8" standalone="no"?><svg xmlns="http://www.w3.org/2000/svg" xmlns:xlink="http://www.w3.org/1999/xlink" contentScriptType="application/ecmascript" contentStyleType="text/css" height="580px" preserveAspectRatio="none" style="width:1308px;height:580px;" version="1.1" viewBox="0 0 1308 580" width="1308px" zoomAndPan="magnify"><defs><filter height="300%" id="f114ys4k7uuh4p" width="300%" x="-1" y="-1"><feGaussianBlur result="blurOut" stdDeviation="2.0"/><feColorMatrix in="blurOut" result="blurOut2" type="matrix" values="0 0 0 0 0 0 0 0 0 0 0 0 0 0 0 0 0 0 .4 0"/><feOffset dx="4.0" dy="4.0" in="blurOut2" result="blurOut3"/><feBlend in="SourceGraphic" in2="blurOut3" mode="normal"/></filter></defs><g><!--MD5=[97ab183161fd5d1db7fba7485cf76add]
entity Admin--><ellipse cx="132.5" cy="138" fill="#FEFECE" filter="url(#f114ys4k7uuh4p)" rx="8" ry="8" style="stroke: #A80036; stroke-width: 1.5;"/><path d="M132.5,146 L132.5,173 M119.5,154 L145.5,154 M132.5,173 L119.5,188 M132.5,173 L145.5,188 " fill="none" filter="url(#f114ys4k7uuh4p)" style="stroke: #A80036; stroke-width: 1.5;"/><text fill="#000000" font-family="sans-serif" font-size="14" lengthAdjust="spacingAndGlyphs" textLength="187" x="39" y="206.4951">Administrador de actividades</text><!--MD5=[6c368043cfd7252a992ee15855b2f7da]
entity Demand--><ellipse cx="132.5" cy="372" fill="#FEFECE" filter="url(#f114ys4k7uuh4p)" rx="8" ry="8" style="stroke: #A80036; stroke-width: 1.5;"/><path d="M132.5,380 L132.5,407 M119.5,388 L145.5,388 M132.5,407 L119.5,422 M132.5,407 L145.5,422 " fill="none" filter="url(#f114ys4k7uuh4p)" style="stroke: #A80036; stroke-width: 1.5;"/><text fill="#000000" font-family="sans-serif" font-size="14" lengthAdjust="spacingAndGlyphs" textLength="82" x="91.5" y="440.4951">Demandante</text><!--MD5=[980228983ef3465703849100b06cf1c8]
entity Offer--><ellipse cx="1009.5" cy="166" fill="#FEFECE" filter="url(#f114ys4k7uuh4p)" rx="8" ry="8" style="stroke: #A80036; stroke-width: 1.5;"/><path d="M1009.5,174 L1009.5,201 M996.5,182 L1022.5,182 M1009.5,201 L996.5,216 M1009.5,201 L1022.5,216 " fill="none" filter="url(#f114ys4k7uuh4p)" style="stroke: #A80036; stroke-width: 1.5;"/><text fill="#000000" font-family="sans-serif" font-size="14" lengthAdjust="spacingAndGlyphs" textLength="61" x="979" y="234.4951">Ofertante</text><ellipse cx="454.2042" cy="372.9408" fill="#FEFECE" filter="url(#f114ys4k7uuh4p)" rx="102.7042" ry="22.9408" style="stroke: #A80036; stroke-width: 1.5;"/><text fill="#000000" font-family="sans-serif" font-size="14" lengthAdjust="spacingAndGlyphs" textLength="182" x="363.2042" y="377.5893">Registrarse como solicitante</text><ellipse cx="1198.6147" cy="197.1229" fill="#FEFECE" filter="url(#f114ys4k7uuh4p)" rx="98.6147" ry="22.1229" style="stroke: #A80036; stroke-width: 1.5;"/><text fill="#000000" font-family="sans-serif" font-size="14" lengthAdjust="spacingAndGlyphs" textLength="173" x="1112.1147" y="201.7714">Registrarse como ofertante</text><ellipse cx="453.9476" cy="460.8895" fill="#FEFECE" filter="url(#f114ys4k7uuh4p)" rx="134.9476" ry="29.3895" style="stroke: #A80036; stroke-width: 1.5;"/><text fill="#000000" font-family="sans-serif" font-size="14" lengthAdjust="spacingAndGlyphs" textLength="251" x="328.4476" y="465.538">Solicitar la participacion a una actividad</text><ellipse cx="783.8973" cy="370.1795" fill="#FEFECE" filter="url(#f114ys4k7uuh4p)" rx="118.8973" ry="26.1795" style="stroke: #A80036; stroke-width: 1.5;"/><text fill="#000000" font-family="sans-serif" font-size="14" lengthAdjust="spacingAndGlyphs" textLength="217" x="675.3973" y="374.8279">Evaluar la calidad de una actividad</text><ellipse cx="132.4187" cy="272.1837" fill="#FEFECE" filter="url(#f114ys4k7uuh4p)" rx="126.4187" ry="27.6837" style="stroke: #A80036; stroke-width: 1.5;"/><text fill="#000000" font-family="sans-serif" font-size="14" lengthAdjust="spacingAndGlyphs" textLength="233" x="15.9187" y="276.8322">Evaluar la viabilidad de una actividad</text><ellipse cx="454.1205" cy="288.0241" fill="#FEFECE" filter="url(#f114ys4k7uuh4p)" rx="123.1205" ry="27.0241" style="stroke: #A80036; stroke-width: 1.5;"/><text fill="#000000" font-family="sans-serif" font-size="14" lengthAdjust="spacingAndGlyphs" textLength="226" x="341.1205" y="292.6725">Enviar correos o mensajes privados</text><ellipse cx="783.9476" cy="460.8895" fill="#FEFECE" filter="url(#f114ys4k7uuh4p)" rx="134.9476" ry="29.3895" style="stroke: #A80036; stroke-width: 1.5;"/><text fill="#000000" font-family="sans-serif" font-size="14" lengthAdjust="spacingAndGlyphs" textLength="251" x="658.4476" y="465.538">Retirar la participacion de una actividad</text><ellipse cx="783.7599" cy="547.852" fill="#FEFECE" filter="url(#f114ys4k7uuh4p)" rx="97.2599" ry="21.852" style="stroke: #A80036; stroke-width: 1.5;"/><text fill="#000000" font-family="sans-serif" font-size="14" lengthAdjust="spacingAndGlyphs" textLength="170" x="698.7599" y="552.5004">Comentar en una actividad</text><ellipse cx="454.0368" cy="114.8074" fill="#FEFECE" filter="url(#f114ys4k7uuh4p)" rx="87.0368" ry="19.8074" style="stroke: #A80036; stroke-width: 1.5;"/><text fill="#000000" font-family="sans-serif" font-size="14" lengthAdjust="spacingAndGlyphs" textLength="147" x="380.5368" y="119.4558">Modificar una actividad</text><ellipse cx="453.9293" cy="34.0859" fill="#FEFECE" filter="url(#f114ys4k7uuh4p)" rx="118.4293" ry="26.0859" style="stroke: #A80036; stroke-width: 1.5;"/><text fill="#000000" font-family="sans-serif" font-size="14" lengthAdjust="spacingAndGlyphs" textLength="216" x="345.9293" y="38.7343">Evaluar el estado de una actividad</text><ellipse cx="783.9395" cy="157.0879" fill="#FEFECE" filter="url(#f114ys4k7uuh4p)" rx="75.9395" ry="17.5879" style="stroke: #A80036; stroke-width: 1.5;"/><text fill="#000000" font-family="sans-serif" font-size="14" lengthAdjust="spacingAndGlyphs" textLength="121" x="723.4395" y="161.7363">Crear una actividad</text><ellipse cx="453.8592" cy="544.8718" fill="#FEFECE" filter="url(#f114ys4k7uuh4p)" rx="84.8592" ry="19.3718" style="stroke: #A80036; stroke-width: 1.5;"/><text fill="#000000" font-family="sans-serif" font-size="14" lengthAdjust="spacingAndGlyphs" textLength="142" x="382.8592" y="549.5203">Modificar preferencias</text><ellipse cx="454.215" cy="198.143" fill="#FEFECE" filter="url(#f114ys4k7uuh4p)" rx="128.715" ry="28.143" style="stroke: #A80036; stroke-width: 1.5;"/><text fill="#000000" font-family="sans-serif" font-size="14" lengthAdjust="spacingAndGlyphs" textLength="158" x="375.215" y="191.3815">Gestiona la participacion</text><text fill="#000000" font-family="sans-serif" font-size="14" lengthAdjust="spacingAndGlyphs" textLength="215" x="346.715" y="207.6784">de un solicitante en una actividad</text><!--MD5=[fbf660cd8b94435a3881fba0cba358d7]
link Demand to SendMessages--><path d="M173.82,386.92 C211.26,372.15 268.64,349.9 319,332 C338.14,325.2 358.95,318.18 378.34,311.81 " fill="none" id="Demand-&gt;SendMessages" style="stroke: #A80036; stroke-width: 1.0;"/><polygon fill="#A80036" points="383.23,310.2,373.4313,309.207,378.4795,311.7597,375.9268,316.8078,383.23,310.2" style="stroke: #A80036; stroke-width: 1.0;"/><!--MD5=[8c4ca3276bcb127656730d1800f01c64]
link Demand to RegisterDemand--><path d="M173.64,399.23 C218.63,395.01 293.25,388 354.05,382.29 " fill="none" id="Demand-&gt;RegisterDemand" style="stroke: #A80036; stroke-width: 1.0;"/><polygon fill="#A80036" points="359.14,381.81,349.8026,378.6775,354.1623,382.282,350.5578,386.6418,359.14,381.81" style="stroke: #A80036; stroke-width: 1.0;"/><!--MD5=[b3dfe7b9404a7151ff5fff3be20c9dfa]
link Demand to RequestActivity--><path d="M173.64,410.29 C216.35,418.04 285.75,430.64 344.69,441.34 " fill="none" id="Demand-&gt;RequestActivity" style="stroke: #A80036; stroke-width: 1.0;"/><polygon fill="#A80036" points="349.64,442.24,341.4894,436.7112,344.7188,441.3556,340.0744,444.585,349.64,442.24" style="stroke: #A80036; stroke-width: 1.0;"/><!--MD5=[aaf76938e7fd73fe0d5b21c3eff7464c]
link Demand to ModifyPrefernces--><path d="M173.66,429.58 C210.27,452.86 266.51,486.29 319,508 C340.67,516.96 365.19,524.45 387.27,530.29 " fill="none" id="Demand-&gt;ModifyPrefernces" style="stroke: #A80036; stroke-width: 1.0;"/><polygon fill="#A80036" points="392.24,531.59,384.5552,525.4301,387.4048,530.3168,382.5181,533.1664,392.24,531.59" style="stroke: #A80036; stroke-width: 1.0;"/><!--MD5=[83b0c609e74ceb37eef5959912cd12cc]
link RequestActivity to EvaluateQuality--><path d="M538.19,437.92 C589.29,423.74 654.35,405.69 704.55,391.76 " fill="none" id="RequestActivity-&gt;EvaluateQuality" style="stroke: #A80036; stroke-width: 1.0; stroke-dasharray: 7.0,7.0;"/><polygon fill="#A80036" points="709.67,390.34,699.9313,388.8709,704.8492,391.6664,702.0536,396.5843,709.67,390.34" style="stroke: #A80036; stroke-width: 1.0;"/><!--MD5=[7398f18e25d8b28bedc5d8cd34e8a927]
link RequestActivity to RemoveParticipation--><path d="M589.36,461 C607.31,461 625.75,461 643.78,461 " fill="none" id="RequestActivity-&gt;RemoveParticipation" style="stroke: #A80036; stroke-width: 1.0; stroke-dasharray: 7.0,7.0;"/><polygon fill="#A80036" points="648.85,461,639.85,457,643.85,461,639.85,465,648.85,461" style="stroke: #A80036; stroke-width: 1.0;"/><!--MD5=[1d11a699ac8dcf6891ff2a8b962eef4e]
link RequestActivity to CommentActivity--><path d="M540.75,483.74 C595.18,498.18 664.63,516.6 715.2,530.02 " fill="none" id="RequestActivity-&gt;CommentActivity" style="stroke: #A80036; stroke-width: 1.0; stroke-dasharray: 7.0,7.0;"/><polygon fill="#A80036" points="720.03,531.3,712.3577,525.1245,715.1974,530.017,710.3049,532.8567,720.03,531.3" style="stroke: #A80036; stroke-width: 1.0;"/><!--MD5=[f30cb00b36dc61384ef9a34bd5918b42]
link Admin to SendMessages--><path d="M226.05,207.09 C255.62,218.95 288.57,231.83 319,243 C338.43,250.13 359.61,257.45 379.27,264.06 " fill="none" id="Admin-&gt;SendMessages" style="stroke: #A80036; stroke-width: 1.0;"/><polygon fill="#A80036" points="384.23,265.72,376.9808,259.053,379.4923,264.1217,374.4236,266.6333,384.23,265.72" style="stroke: #A80036; stroke-width: 1.0;"/><!--MD5=[42bcae11979c6933d6c177f9ba99fdf8]
link Admin to EvaluateViability--><path d="M132.5,209.56 C132.5,219.4 132.5,229.25 132.5,239.09 " fill="none" id="Admin-&gt;EvaluateViability" style="stroke: #A80036; stroke-width: 1.0;"/><polygon fill="#A80036" points="132.5,244.24,136.5,235.24,132.5,239.24,128.5,235.24,132.5,244.24" style="stroke: #A80036; stroke-width: 1.0;"/><!--MD5=[5c1adff85e54249dc3c293c1445b4c72]
link Admin to ManageParticipation--><path d="M226.34,177.43 C258.74,180.37 295.62,183.72 330.09,186.84 " fill="none" id="Admin-&gt;ManageParticipation" style="stroke: #A80036; stroke-width: 1.0;"/><polygon fill="#A80036" points="335.15,187.3,326.5541,182.4927,330.171,186.8422,325.8215,190.4591,335.15,187.3" style="stroke: #A80036; stroke-width: 1.0;"/><!--MD5=[5b3b40c5c1ffc8796feef2652a2ba253]
link Admin to ModifyActivity--><path d="M226.34,153.31 C274.6,145.15 332.79,135.32 378.13,127.65 " fill="none" id="Admin-&gt;ModifyActivity" style="stroke: #A80036; stroke-width: 1.0;"/><polygon fill="#A80036" points="383.32,126.78,373.7745,124.3543,378.3915,127.6228,375.1231,132.2399,383.32,126.78" style="stroke: #A80036; stroke-width: 1.0;"/><!--MD5=[6605adadb2414ce52f3424531e25978c]
link Admin to EvaluateActivityStatus--><path d="M209.03,128.33 C242.24,111.29 282.03,92 319,77 C337.47,69.51 357.78,62.42 376.88,56.25 " fill="none" id="Admin-&gt;EvaluateActivityStatus" style="stroke: #A80036; stroke-width: 1.0;"/><polygon fill="#A80036" points="381.7,54.7,371.9078,53.645,376.9397,56.2296,374.3551,61.2615,381.7,54.7" style="stroke: #A80036; stroke-width: 1.0;"/><!--MD5=[e987e3dfbf290ec99419ce02d75ac4bb]
reverse link SendMessages to Offer--><path d="M557.94,271.08 C687.07,249.85 901.03,214.67 978.95,201.86 " fill="none" id="SendMessages&lt;-Offer" style="stroke: #A80036; stroke-width: 1.0;"/><polygon fill="#A80036" points="553,271.89,562.5317,274.3694,557.9331,271.075,561.2276,266.4764,553,271.89" style="stroke: #A80036; stroke-width: 1.0;"/><!--MD5=[85f56f8e74b2a392e1ad8ca2457ac0a7]
link Offer to RegisterOffer--><path d="M1040.13,197 C1055.32,197 1074.82,197 1094.88,197 " fill="none" id="Offer-&gt;RegisterOffer" style="stroke: #A80036; stroke-width: 1.0;"/><polygon fill="#A80036" points="1099.99,197,1090.99,193,1094.99,197,1090.99,201,1099.99,197" style="stroke: #A80036; stroke-width: 1.0;"/><!--MD5=[7d168e1f16655122c2cea0e2b099d86d]
reverse link CreateActivity to Offer--><path d="M849.74,168.59 C892.32,176.21 946.05,185.82 978.81,191.69 " fill="none" id="CreateActivity&lt;-Offer" style="stroke: #A80036; stroke-width: 1.0;"/><polygon fill="#A80036" points="844.6,167.67,852.7478,173.2029,849.5207,168.5569,854.1668,165.3298,844.6,167.67" style="stroke: #A80036; stroke-width: 1.0;"/><!--MD5=[a070be49409cc6d62d88279a405daf93]
reverse link ManageParticipation to CreateActivity--><path d="M571.05,183.49 C619.83,177.4 674.82,170.52 716.56,165.3 " fill="none" id="ManageParticipation&lt;-CreateActivity" style="stroke: #A80036; stroke-width: 1.0; stroke-dasharray: 7.0,7.0;"/><polygon fill="#A80036" points="566.05,184.12,575.4726,186.9861,571.0123,183.5068,574.4915,179.0465,566.05,184.12" style="stroke: #A80036; stroke-width: 1.0;"/><!--MD5=[630681124b21825d8d5e2a85fba0237c]
reverse link ModifyActivity to CreateActivity--><path d="M535.26,125.28 C591.17,132.44 664.83,141.87 717.26,148.58 " fill="none" id="ModifyActivity&lt;-CreateActivity" style="stroke: #A80036; stroke-width: 1.0; stroke-dasharray: 7.0,7.0;"/><polygon fill="#A80036" points="530.25,124.64,538.6772,129.7373,535.2105,125.2672,539.6807,121.8005,530.25,124.64" style="stroke: #A80036; stroke-width: 1.0;"/><!--MD5=[f08f50de9869ebed8f49fcb0acc74052]
reverse link EvaluateActivityStatus to CreateActivity--><path d="M529.16,56.62 C548.73,62.91 569.75,69.96 589,77 C645.28,97.6 709.34,124.76 747.94,141.54 " fill="none" id="EvaluateActivityStatus&lt;-CreateActivity" style="stroke: #A80036; stroke-width: 1.0; stroke-dasharray: 7.0,7.0;"/><polygon fill="#A80036" points="524.22,55.04,531.5649,61.6015,528.9803,56.5696,534.0122,53.985,524.22,55.04" style="stroke: #A80036; stroke-width: 1.0;"/><!--MD5=[651c5fdb86256c3928da50d51511388a]
@startuml casos_de_uso

actor Admin     as "Administrador de actividades"
actor Demand    as "Demandante"
actor Offer     as "Ofertante"

(Registrarse como solicitante)                  as RegisterDemand
(Registrarse como ofertante)                    as RegisterOffer
(Solicitar la participacion a una actividad)    as RequestActivity
(Evaluar la calidad de una actividad)           as EvaluateQuality
(Evaluar la viabilidad de una actividad)        as EvaluateViability
(Enviar correos o mensajes privados)            as SendMessages
(Retirar la participacion de una actividad)     as RemoveParticipation
(Comentar en una actividad)                     as CommentActivity
(Modificar una actividad)                       as ModifyActivity
(Evaluar el estado de una actividad)            as EvaluateActivityStatus
(Crear una actividad)                           as CreateActivity
(Modificar preferencias)                        as ModifyPrefernces
usecase ManageParticipation as "Gestiona la participacion
de un solicitante en una actividad"


left to right direction

Demand -down-> SendMessages

Demand - -> RegisterDemand
Demand - -> RequestActivity
Demand - -> ModifyPrefernces

RequestActivity ..> EvaluateQuality
RequestActivity ..> RemoveParticipation
RequestActivity ..> CommentActivity

Admin -down-> SendMessages

Admin -right-> EvaluateViability
Admin - -> ManageParticipation
Admin - -> ModifyActivity
Admin - -> EvaluateActivityStatus

Offer -up-> SendMessages

Offer -down-> RegisterOffer
Offer -up-> CreateActivity

CreateActivity .up.> ManageParticipation
CreateActivity .up.> ModifyActivity
CreateActivity .up.> EvaluateActivityStatus

@enduml

PlantUML version 1.2020.02(Sun Mar 01 10:22:07 GMT 2020)
(GPL source distribution)
Java Runtime: OpenJDK Runtime Environment
JVM: OpenJDK 64-Bit Server VM
Java Version: 11.0.5+10-alpine-r0
Operating System: Linux
Default Encoding: UTF-8
Language: en
Country: US
--></g></svg>